<svg id="eXRgod51Vel1" xmlns="http://www.w3.org/2000/svg" xmlns:xlink="http://www.w3.org/1999/xlink" viewBox="0 0 200 200" shape-rendering="geometricPrecision" text-rendering="geometricPrecision"><link xmlns="" type="text/css" rel="stylesheet" id="dark-mode-custom-link"/><link xmlns="" type="text/css" rel="stylesheet" id="dark-mode-general-link"/><style xmlns="" lang="en" type="text/css" id="dark-mode-custom-style"/><style xmlns="" lang="en" type="text/css" id="dark-mode-native-style"/><g transform="matrix(.1 0 0-.1 0 200)"><path d="M870,1860c0-5,5-10,10-10c6,0,10,5,10,10c0,6-4,10-10,10-5,0-10-4-10-10Z"/><path d="M964,1855c-4-8-9-13-14-10-16,10,9-80,26-92c28-21,112-14,98,8-2,5-13,4-23-3-42-26-99,18-87,67c11,44,76,43,76,0c0-28-24-39-40-20-10,12-8,17,11,24l24,10h-23c-29,1-40-26-18-47c32-32,75,28,46,64-16,19-69,18-76-1Z"/><path d="M308,1831c16-9,18-44,7-80-6-17-5-22,3-17c7,4,12,15,12,24c0,24,41,41,66,28c30-17,35-28,30-63s8-54,18-27c11,29,6,59-15,84-16,19-29,24-59,23-30-2-39,2-43,18-3,10-11,19-19,19-11,0-11-2,0-9Z" transform="translate(.000001 0)"/><path d="M408,1833c7-3,16-2,19,1c4,3-2,6-13,5-11,0-14-3-6-6Z"/><path d="M168,1808c-6-14,44-19,58-5c4,4,0,7-9,7-8,0-22,3-30,6s-17-1-19-8Z"/><path d="M496,1813c-11-11-6-23,9-23c8,0,15,4,15,9c0,13-16,22-24,14Z"/><path d="M645,1806c-57-21-122-96-130-149l-7-42-45,4c-84,6-172-42-204-113-39-86-15-183,54-221c26-14,37-28,42-53c4-23,16-39,35-50c22-13,29-25,33-59c13-121,157-189,271-128c39,21,55,24,104,19c78-8,135,9,187,57c45,42,75,106,75,162v30l53-6c71-7,175-55,231-107c53-49,101-132,122-210c16-64,17-73,5-65-16,10-22-12-10-39c7-14,15-26,19-26s13-42,19-92c7-51,15-101,17-110c4-14-1-18-21-18-23,0-26,4-22,21c11,40,0,47-65,40-5-1-8-16-8-35c0-30-2-33-24-29-21,4-24,10-21,37c2,17,7,89,9,160l6,128-25-4c-23-5-25-2-25,33c0,42-10,48-53,28-18-8-22-17-19-38l4-28-114-6c-62-4-143-7-180-7-71,0-77-5-57-42c6-12,20-103,30-204c19-180,19-183-1-226-23-52-25-116-5-165c8-19,15-36,15-37c0-3-135,6-138,9-5,5,32,240,39,245c8,6,29,56,29,71c0,5-136,9-340,9-187,0-340-4-340-9c0-17,22-71,30-71c4,0,16-61,26-135c13-97,21-135,31-135c7,0,18-11,23-24c28-75,148-75,182,0c9,19,19,24,50,24c32,0,40-4,48-24c30-79,160-75,186,6c5,16,17,18,98,18c82,0,95-3,112-21c74-82,233-80,303,5c19,23,51,21,51-4c0-28,35-60,67-60c15,0,37,10,50,22l23,21l23-21c32-30,71-28,96,4c12,15,21,33,21,40c0,24,30,15,40-11c9-24,12-25,106-25h96l-23,38c-12,20-37,60-56,88l-34,51l16,68c14,64,14,71-5,135-11,38-24,70-28,72-10,4,8,211,18,218c8,6,30,46,30,54c0,3-9,6-19,6-16,0-18,6-14,38c8,61-15,215-45,301-41,114-86,185-177,277-136,137-306,211-507,221-94,5-108,8-114,25-3,10-23,30-44,45-49,32-145,41-205,19Zm193-33c45-33,67-81,67-145c0-61-8-79-27-60-14,14-102,16-94,3c3-5,14-7,25-4c42,11,111-56,111-109c0-26-40-78-65-84-28-7-34-24-8-24c9,0,32,14,50,32l33,32l37-30c75-60,93-146,49-239-27-58-47-78-99-100-79-33-182-13-244,47-18,18-36,29-39,25-9-9,23-45,59-67l28-17-27-18c-31-20-100-31-138-21-37,9-87,55-107,101-25,54-24,62,10,70c16,3,37,15,47,26c15,17,16,19,1,19-10,0-17-4-17-9c0-15-57-23-79-11-33,17-45,47-30,81c12,31,4,54-11,30-7-12-13-12-40-1-81,33-95,164-27,239c33,36,96,61,154,61h52l27-49c16-31,31-48,40-44c10,4,8,10-7,26-79,86-20,229,108,262c56,14,125,5,161-22Zm397-120c44-15,85-31,90-36c6-4,36-24,68-43c33-21,54-40,51-46-4-6-2-8,3-5c19,12,163-147,163-180c0-7,4-13,8-13c14,0,61-125,82-216c11-47,20-118,20-159v-75l-72-1c-40-1-90-2-110-3-37-1-38,0-48,49-16,76-63,165-114,215-56,56-73,70-84,70-5,0-15,6-21,14-16,19-95,44-164,52-49,6-56,10-62,33-8,31-52,91-66,91-23,0-43,34-45,77-1,29,2,40,7,32c6-10,9-11,9-1c0,9,24,12,85,12c52,0,85-4,85-10s6-10,13-9c16,3,66-10,95-24c17-8,19-13,10-20-9-6-5-7,11-3c25,5,55-6,79-31c7-7,20-13,28-13s14-4,14-8c0-5,16-17,35-28c37-20,43-29,23-37-10-4-10-7,0-18s12-10,12,5s2,16,15,2c8-8,15-19,15-25c0-5,9-13,20-16s20-14,20-24s11-35,25-55s26-45,26-54c1-16,2-16,6,0c7,28-53,131-114,193-58,60-185,145-216,145-8,0-19,5-22,10-4,6-11,8-16,4-5-3-16-1-24,6-19,15-187,36-211,25-36-16-49-11-46,15c2,14,4,53,5,87c1,61,2,62,32,65c50,5,195-21,280-49Zm65-723c0-20-5-30-15-30-15,0-21,40-8,53c14,15,23,6,23-23Zm50-80c0-22-3-40-7-40-5,0-8-69-8-152c0-84-3-191-6-238-4-53-3-75,2-60c8,22,8,21,4-7l-4-33h129c99,0,130-3,130-13c0-7,9-30,20-52c24-47,24-45,5-45-8,0-15,4-15,10c0,10-52,40-70,40-5,0-20-10-32-22-26-26-48-32-48-13c0,7-14,18-30,25-27,11-34,10-68-14-44-30-52-32-52-10c0,8,4,13,8,10c13-8,34,66,22,78-7,7-10,2-10-12c0-12-4-22-10-22-19,0-25-5-42-40-21-40-21-40-9-40c5,0,13,9,16,21c4,11,9,18,12,16c8-8-9-32-43-60-21-18-31-21-31-12c0,8,3,14,6,13c19-2,19,6-4,40-34,51-26,76,21,67c36-6,68,5,77,28c3,7,2,32-3,55-4,23-3,39,1,36c5-3,9,2,9,10c0,9-4,16-10,16-5,0-10,7-10,15s-8,15-17,15c-13,0-14-3-5-12c19-19,14-31-11-24-14,3-33-1-45-10-27-19-65-10-58,14c3,9,8,29,12,45l6,28l43-36c41-33,73-49,47-23-8,8-8,15-1,24c13,15-45,59-67,50-8-3-12-1-9,4s-6,12-20,16c-37,9-138-1-143-14-2-7-8-12-14-12-5,0-16-7-24-15-26-25-34-17-34,33c0,26-5,88-10,137-6,50-12,108-14,130-3,22-7,47-11,56-5,15,13,17,162,25c92,5,189,10,216,12l47,2v-40Zm388,3c-2-12-13-18-33-19-187-8-220-7-223,9-3,13,15,15,120,16c67,1,124,4,127,6c9,10,12,5,9-12Zm-28-84c0-27-3-48-7-46-5,3-8-21-8-53s-2-60-5-63c-3-2-39-7-81-10l-76-7-7,80c-4,44-11,93-16,110l-8,29l96,4c53,1,100,4,105,5c4,1,7-21,7-49ZM1452,615c4-19,1-25-13-25s-19,7-19,25c0,15,6,25,14,25c7,0,16-11,18-25Zm73-44c4,5,48,9,99,9h93l16-56c13-44,14-68,6-112-14-81-18-90-29-72-6,8-10,11-10,5s-65-10-175-10h-175l-1,25c-2,55,3,195,8,200c9,9,108,16,135,9c15-4,30-3,33,2ZM850,526c0-2-3-11-6-20-5-14-43-16-315-16-170,0-309,2-309,4s-3,11-6,20c-6,14,26,16,315,16c177,0,321-2,321-4Zm310-6c20-6,21-8,5-8-11,0-33,4-50,8-27,7-27,8-5,8c14,0,36-4,50-8Zm-97-10c-12-5-26-17-32-27s-11-14-11-9c0,4-11,1-24-8-19-12-27-13-32-3-4,6-4,9,1,5c4-4,26,6,48,22c23,17,48,30,56,29c10,0,8-3-6-9Zm77-19c0-5-3-23-6-40-9-41-45-43-65-3-7,15-15,30-17,34-4,8,23,15,61,17c15,0,27-3,27-8ZM810,460c0-35-24-218-31-235-7-18-8-17-8,6-1,31-61,89-92,89-25,0-69-22-91-46-16-18-18-23-18-44c0-5-18-10-40-10-27,0-40,4-40,14c0,7-9,25-21,40-11,14-18,30-15,34c3,5-1,9-9,9s-11-5-8-11s0-5-8,2c-18,17-58,15-66-4-3-9-8-12-12-5-10,15-26,1-49-44l-20-40-5,35c-3,19-12,77-19,128l-14,92h283c174,0,283-4,283-10Zm233-31c24-43,8-62-42-53-20,4-38,8-40,10-5,5,48,74,57,74c4,0,15-14,25-31Zm146-74c12-25,12-32-3-60-14-26-24-32-56-33-31-2-42,2-59,24-36,46-20,97,36,113c34,10,63-5,82-44Zm106-44c-4-9-9-10-18-4-6,6-24,13-39,17-38,9-35,36,5,62l32,20l13-40c7-23,10-47,7-55ZM947,368c-3-8-6-5-6,6-1,11,2,17,5,13c3-3,4-12,1-19Zm63-28c20,0,43-57,28-67-7-4-8-1-3,7c8,13,7,13-38-9-15-8-29-12-31-10s-7,24-11,48c-7,43-7,44,16,38c13-4,31-7,39-7Zm761-93c52-82,51-85-46-79l-55,4-32,66c-18,37-34,70-36,75-2,4,25,7,60,7l63-1l46-72ZM706,298c4-6,3-8-4-4-6,3-13-3-17-14-8-26-17-25-34,1-12,20-11,21,8,16c12-3,24-1,27,4c7,12,11,11,20-3ZM410,285c0-16-17-38-22-29-17,31-16,43,3,41c10-1,19-6,19-12Zm-44-29c7-31,39-30,53,1c7,14,16,20,26,17c21-8,19-21-5-27-11-3-20-10-20-16c0-7,10-9,25-5c19,5,25,2,25-11s-6-16-24-11c-14,3-27,2-31-4-3-5,6-12,20-16c20-5,23-9,14-20-15-18-29-18-29,0c0,8-5,18-11,22-8,5-10-1-7-20c4-20,1-26-13-26-26,0-24,13,7,49l26,31h-24c-28,1-72,35-63,50c11,17,24,11,31-14Zm279,3c4-11,4-23,1-26-3-4-6-1-6,5c0,7-9,12-20,12-13,0-18,5-14,15c9,22,32,18,39-6Zm95,0c0-5-4-9-9-9s-17-3-26-6c-15-6-15-4-4,14c12,19,39,20,39,1Zm345-27c-3-8-8-25-11-38s-8-24-10-24c-8,0-74,45-74,50c0,3,15,14,33,26c25,16,36,19,50,10c9-6,15-17,12-24Zm-111-4c-3-5-12-4-20,3-19,16-18,18,6,12c11-3,17-9,14-15Zm205-14c12-20,20-39,17-41-3-3-25-8-50-10l-44-5l10,40c6,23,17,43,27,45c9,3,17,5,18,6c0,0,11-15,22-35Zm-829,8c19-16,20-21,9-45-10-22-15-25-26-15-12,10-11,15,9,31l23,19-27-6c-23-5-28-3-28,14c0,25,11,25,40,2Zm286-3c3-5,1-9-5-9-5,0-16-3-25-6-11-4-16,0-16,14c0,15,5,19,20,15c11-3,23-9,26-14Zm49,10c4-6,19-7,36-4c23,5,29,3,29-10s-6-15-32-10c-31,6-32,5-14-10c11-8,24-15,29-15s4-7-3-15c-7-9-17-12-21-8-17,18-48,83-39,83c5,0,12-5,15-11Zm725,2c0-6-4-13-10-16-5-3-10,1-10,9c0,9,5,16,10,16c6,0,10-4,10-9Zm140,0c0-6-4-13-10-16-5-3-10,1-10,9c0,9,5,16,10,16c6,0,10-4,10-9Zm-170-21c0-5-7-7-15-4-8,4-12,10-9,15c6,11,24,2,24-11Zm55,10c3-5,1-10-4-10-6,0-11,5-11,10c0,6,2,10,4,10c3,0,8-4,11-10Zm85,0c0-5-4-10-10-10-5,0-10,5-10,10c0,6,5,10,10,10c6,0,10-4,10-10Zm57-4c-3-8-1-17,6-19s8-8,4-13-12-2-17,6c-13,20-12,40,1,40c6,0,9-6,6-14Zm-907-6c0-5-2-10-4-10-3,0-8,5-11,10-3,6-1,10,4,10c6,0,11-4,11-10Zm-20-18c0-5-6-16-13-26-12-16-14-16-26-2-11,13-10,17,10,25c31,12,29,12,29,3Zm715-2c3-5-1-10-9-10-9,0-16,5-16,10c0,6,4,10,9,10c6,0,13-4,16-10Zm185-2c0-10-20-13-73-11-100,2-99,2-93,12c9,15,166,14,166-1ZM683,160c4-15,0-20-15-20-14,0-18,5-14,16c3,9,6,20,6,25c0,17,17,1,23-21Zm691-5c-4-8-10-12-15-9-14,8-10,24,6,24c9,0,12-6,9-15Zm206,5c0-5-4-10-10-10-5,0-10,5-10,10c0,6,5,10,10,10c6,0,10-4,10-10Zm-481-9c7-5,9-11,4-14-4-3-17,1-28,9-21,16,0,20,24,5Zm308-17c-9-9-28,6-21,18c4,6,10,6,17-1c6-6,8-13,4-17Zm33,22c0-3-4-8-10-11-5-3-10-1-10,4c0,6,5,11,10,11c6,0,10-2,10-4Zm80-6c0-5-2-10-4-10-3,0-8,5-11,10-3,6-1,10,4,10c6,0,11-4,11-10Zm30-5c0-8-4-15-10-15-5,0-10,7-10,15s5,15,10,15c6,0,10-7,10-15Z"/><path d="M626,1712c-2-4-1-14,4-22c7-11,9-9,7,8-1,24-3,26-11,14Z"/><path d="M800,1636c0-9,5-16,10-16c6,0,10,4,10,9c0,6-4,13-10,16-5,3-10-1-10-9Z"/><path d="M850,1630c0-5,5-10,11-10c5,0,7,5,4,10-3,6-8,10-11,10-2,0-4-4-4-10Z"/><path d="M765,1540c-3-5-1-10,4-10c6,0,11,5,11,10c0,6-2,10-4,10-3,0-8-4-11-10Z"/><path d="M795,1530c6-30,16-40,12-12-2,12-6,24-10,28-3,4-4-4-2-16Z"/><path d="M490,1530c-9-6-10-10-3-10c6,0,15,5,18,10c8,12,4,12-15,0Z"/><path d="M620,1530c0-5,5-10,10-10c6,0,10,5,10,10c0,6-4,10-10,10-5,0-10-4-10-10Z"/><path d="M844,1432c3-5,0-13-6-15-9-4-10-6-1-6c17-1,25,16,12,25-7,4-9,3-5-4Z"/><path d="M300,1373c0-6,8-17,18-24c16-13,16-13,2,6-8,11-16,22-17,24-2,2-3,0-3-6Z"/><path d="M485,1230c-3-6,1-7,9-4c18,7,21,14,7,14-6,0-13-4-16-10Z"/><path d="M962,1220c0-14,2-19,5-12c2,6,2,18,0,25-3,6-5,1-5-13Z"/><path d="M640,1189c0-5,5-7,10-4c6,3,10,8,10,11c0,2-4,4-10,4-5,0-10-5-10-11Z"/><path d="M546,1163c-6-14-5-15,5-6c7,7,10,15,7,18s-9-2-12-12Z"/><path d="M1120,1650c0-5,5-10,11-10c5,0,7,5,4,10-3,6-8,10-11,10-2,0-4-4-4-10Z"/><path d="M941,1605c1-19,18-51,18-35c0,8-4,22-9,30s-9,11-9,5Z"/><path d="M1360,1541c0-10,19-25,25-20c1,2-3,10-11,17s-14,8-14,3Z"/><path d="M1397,1539c7-7,15-10,18-7s-2,9-12,12c-14,6-15,5-6-5Z"/><path d="M1240,1516c0-2,9-6,20-9s18-1,14,4c-5,9-34,13-34,5Z"/><path d="M1450,1500c0-5,5-10,11-10c5,0,7,5,4,10-3,6-8,10-11,10-2,0-4-4-4-10Z"/><path d="M988,1483c6-2,18-2,25,0c6,3,1,5-13,5s-19-2-12-5Z"/><path d="M1465,1470c-8-13,3-30,18-30c8,0,7,3-2,9-7,5-10,14-7,20c4,6,5,11,2,11s-8-4-11-10Z"/><path d="M1108,1448c-4-9-2-19,5-22c7-2,3-5-8-6-20-1-20-1,0-10c15-6,7-8-27-7-27,1-48,5-48,10c0,4-15,6-32,6-18-1-25-3-15-6c9-2,17-8,17-12c0-5,33-11,73-14c218-16,388-151,452-360c14-46,25-95,25-109c0-24,15-46,25-36c4,3-12,69-39,156-8,30-25,69-37,88s-18,38-15,42c4,3,11,0,16-8c6-8,10-10,11-5c7,45,5,53-10,50-9-1-17-7-17-13-1-7-2-15-3-19-1-8-41,33-41,43c0,4-8,16-17,27-15,17-16,19-2,15c9-4,16-1,16,8c0,16-9,18-23,4-8-8-40,12-116,75-9,7-19,10-23,7-3-4-9-1-13,5s-36,18-72,25c-75,16-96,41-28,33l43-4-42,11c-25,6-43,17-45,27-3,14-4,14-10-1Zm400-273c-3-3-9,2-12,12-6,14-5,15,5,6c7-7,10-15,7-18Z"/><path d="M1185,1440c-16-7-17-9-3-9c9-1,20,4,23,9c7,11,7,11-20,0Z"/><path d="M1526,1387c3-10,9-15,12-12s0,11-7,18c-10,9-11,8-5-6Z"/><path d="M1046,1362c-2-4,12-6,32-4c62,6,69,10,20,11-26,0-49-3-52-7Z"/><path d="M1091,1334c0-11,3-14,6-6c3,7,2,16-1,19-3,4-6-2-5-13Z"/><path d="M1125,1333c21-14,59-18,51-4-3,5-20,11-37,13-29,5-30,4-14-9Z"/><path d="M1330,1336c0-2,7-7,16-10c8-3,12-2,9,4-6,10-25,14-25,6Z"/><path d="M1220,1326c0-2,7-6,15-10c8-3,15-1,15,4c0,6-7,10-15,10s-15-2-15-4Z"/><path d="M1070,1298c0-5,17-8,37-8s33,3,30,7c-10,9-67,10-67,1Z"/><path d="M1283,1297c0-7,9-13,19-13s18,1,18,3c0,1-8,7-18,12-13,7-19,6-19-2Z"/><path d="M1257,1269c7-7,15-10,18-7s-2,9-12,12c-14,6-15,5-6-5Z"/><path d="M1318,1263c7-3,16-2,19,1c4,3-2,6-13,5-11,0-14-3-6-6Z"/><path d="M1280,1240c0-5,5-10,10-10c6,0,10,5,10,10c0,6-4,10-10,10-5,0-10-4-10-10Z"/><path d="M1364,1231c10-11,15-24,12-30-8-12,14-51,28-51c5,0,1,9-10,21-15,17-16,22-4,29s11,12-4,29c-11,12-24,21-29,21-6,0-2-9,7-19Z"/><path d="M1601,1214c0-11,3-14,6-6c3,7,2,16-1,19-3,4-6-2-5-13Z"/><path d="M1451,1143c-1-8-8-10-18-6-17,6-17,6,0-11c20-21,31-16,24,11-3,10-5,13-6,6Z"/><path d="M1577,1126c-10-25-9-56,2-56c15,0,22-47,11-76-13-33-5-67,10-44c13,21,11,86-4,144-9,35-15,44-19,32Z"/><path d="M1528,1106c4-15,7-17,10-6c3,8,10,18,16,22s1,6-10,6c-16-2-20-7-16-22Z"/><path d="M1470,1091c0-5,7-15,17-22c15-13,15-12,4,9-12,23-21,28-21,13Z"/><path d="M1572,1020c0-14,2-19,5-12c2,6,2,18,0,25-3,6-5,1-5-13Z"/><path d="M1507,969c4-13,8-18,11-10c2,7-1,18-6,23-8,8-9,4-5-13Z"/><path d="M1610,928c0-15,5-30,10-33c13-8,13,25,0,45-8,12-10,9-10-12Z"/><path d="M948,843c7-3,16-2,19,1c4,3-2,6-13,5-11,0-14-3-6-6Z"/><path d="M1250,846c-3-2-57-6-120-7-166-4-153,7-143-113c4-55,7-115,8-132c0-29,2-31,25-26c56,13,205,6,238-10c31-16,32-16,37,5c3,12,6,81,7,152l3,130-25,3c-14,2-28,1-30-2Zm38-103c-3-49-7-107-7-131-1-38-3-43-20-37-48,15-131,22-181,15-30-4-56-6-58-5-2,2-14,103-25,205-2,27-2,27,253,38l45,2-7-87Z"/><path d="M1545,710c3-5,8-10,11-10c2,0,4,5,4,10c0,6-5,10-11,10-5,0-7-4-4-10Z"/><path d="M1581,704c0-11,3-14,6-6c3,7,2,16-1,19-3,4-6-2-5-13Z"/><path d="M1571,520c1-25,5-72,9-105c7-59,7-59,8,30c1,50-3,97-8,105-7,11-9,2-9-30Z"/><path d="M1670,461c0-56,4-91,10-91c13,0,12,168-1,176-5,3-9-36-9-85Z"/><path d="M1524,518c3-13,6-51,6-86s4-61,9-58c4,3,7,16,6,28-1,13-3,49-4,81c0,34-5,57-12,57s-9-9-5-22Z"/><path d="M1621,473c1-106,17-124,18-20c1,52-3,87-9,87s-10-29-9-67Z"/><path d="M1721,454c0-11,3-14,6-6c3,7,2,16-1,19-3,4-6-2-5-13Z"/><path d="M1458,363c12-2,30-2,40,0c9,3-1,5-23,4-22,0-30-2-17-4Z"/><path d="M328,403c6-2,18-2,25,0c6,3,1,5-13,5s-19-2-12-5Z"/><path d="M291,348c-1-29,13-45,25-27c4,7,3,9-4,5-6-4-12,5-15,21l-4,28-2-27Z"/><path d="M761,304c0-11,3-14,6-6c3,7,2,16-1,19-3,4-6-2-5-13Z"/><path d="M1100,338c0-4,4-8,9-8c6,0,12,4,15,8c3,5-1,9-9,9s-15-4-15-9Z"/><path d="M440,1800c0-6,7-10,15-10s15,2,15,4-7,6-15,10c-8,3-15,1-15-4Z"/><path d="M180,1780c0-5,5-10,11-10c5,0,7,5,4,10-3,6-8,10-11,10-2,0-4-4-4-10Z"/><path d="M210,1770c0-5,5-10,10-10c6,0,10,5,10,10c0,6-4,10-10,10-5,0-10-4-10-10Z"/><path d="M1160,1770c0-5,7-10,15-10s15,5,15,10c0,6-7,10-15,10s-15-4-15-10Z"/><path d="M360,1760c0-5,7-10,15-10c17,0,20-25,5-35-12-8-13-25-2-25c16,0,30,45,20,63s-38,23-38,7Z"/><path d="M340,1736c0-8-6-16-12-18-9-3-8-9,5-22c9-10,17-16,18-14c6,30,6,59-2,63-5,4-9,0-9-9Z"/><path d="M1265,1720c3-5,8-10,11-10c2,0,4,5,4,10c0,6-5,10-11,10-5,0-7-4-4-10Z"/><path d="M1348,1673c7-3,16-2,19,1c4,3-2,6-13,5-11,0-14-3-6-6Z"/><path d="M240,1635c0-9,5-15,11-13s11,8,11,13-5,11-11,13-11-4-11-13Z"/><path d="M1566,1512c-2-4,4-8,14-8s16,4,14,8c-3,4-9,8-14,8s-11-4-14-8Z"/><path d="M1670,1349c0-5,5-7,10-4c6,3,10,8,10,11c0,2-4,4-10,4-5,0-10-5-10-11Z"/><path d="M217,1223c-13-13-7-32,8-27c8,4,15,12,15,20c0,15-12,19-23,7Z"/><path d="M1158,1213c7-3,16-2,19,1c4,3-2,6-13,5-11,0-14-3-6-6Z"/><path d="M1180,1191c0-6,4-13,10-16s7,1,4,9c-7,18-14,21-14,7Z"/><path d="M180,1167c-17-13-24-57-9-57c5,0,9,4,9,10c0,5,7,7,15,4c8-4,15-1,15,5s-10,12-22,12c-17,1-19,2-5,6c9,2,17,11,17,19c0,17-1,17-20,1Z"/><path d="M1120,1146c0-9,7-16,16-16c17,0,14,22-4,28-7,2-12-3-12-12Z"/><path d="M241,1094c-24-31-25-35-9-69c18-40,80-47,94-10c4,8,3,27,0,41-5,20-12,25-34,22-19-2-28-9-30-26-4-25,23-41,40-24c7,7,5,10-7,9-23-2-30,19-10,27c22,8,35-1,35-23c0-26-25-44-50-36-27,9-40,44-27,73c10,21,21,26,77,35c15,3,8,5-17,6-34,1-45-4-62-25Z"/><path d="M1112,1090c0-14,2-19,5-12c2,6,2,18,0,25-3,6-5,1-5-13Z"/><path d="M172,1055c-11-12-10-15,3-15c8,0,15,7,15,15c0,18-2,18-18,0Z"/><path d="M1072,1048c5-14,48-31,48-18c0,6-7,10-15,10s-15,5-15,10c0,6-5,10-11,10s-9-5-7-12Z"/><path d="M1360,1050c0-5,5-10,11-10c5,0,7,5,4,10-3,6-8,10-11,10-2,0-4-4-4-10Z"/><path d="M1070,1010c29-23,44-26,37-7-2,6-10,11-16,10-6-2-11,2-11,7c0,6-8,10-17,10-15,0-13-4,7-20Z"/><path d="M920,970c0-5,7-10,15-10s15,5,15,10c0,6-7,10-15,10s-15-4-15-10Z"/><path d="M707,949c7-7,15-10,18-7s-2,9-12,12c-14,6-15,5-6-5Z"/><path d="M797,945c3-8,9-12,14-9c12,7,11,11-5,17-10,4-13,1-9-8Z"/><path d="M755,935c17-45,16-61-5-82-26-29-51-29-76-2-14,15-16,24-7,37c14,23,57,22,61,0c4-21-33-26-41-5-4,7-6,6-6-4-1-23,29-33,47-15c15,15,9,51-11,59-22,8-56-12-63-38-8-33,19-65,55-65c32,0,44,8,60,37c15,30,14,56-5,79-15,19-16,19-9-1Z"/><path d="M276,902c-3-6-1-14,5-17c15-10,25,3,12,16-7,7-13,7-17,1Z"/><path d="M510,880c0-5,7-10,15-10s15,5,15,10c0,6-7,10-15,10s-15-4-15-10Z"/><path d="M425,860c3-5,8-10,11-10c2,0,4,5,4,10c0,6-5,10-11,10-5,0-7-4-4-10Z"/><path d="M460,851c0-6,4-13,10-16s7,1,4,9c-7,18-14,21-14,7Z"/><path d="M390,810c0-5,5-10,10-10c6,0,10,5,10,10c0,6-4,10-10,10-5,0-10-4-10-10Z"/><path d="M395,780c-3-5-1-10,4-10c6,0,11,5,11,10c0,6-2,10-4,10-3,0-8-4-11-10Z"/><path d="M420,781c0-6,5-13,10-16c6-3,10,1,10,9c0,9-4,16-10,16-5,0-10-4-10-9Z"/><path d="M436,728c3-5,10-6,15-3c13,9,11,12-6,12-8,0-12-4-9-9Z"/><path d=""/></g></svg>
